<?xml version="1.0" encoding="UTF-8" standalone="no"?>
<svg
   xmlns:dc="http://purl.org/dc/elements/1.1/"
   xmlns:cc="http://creativecommons.org/ns#"
   xmlns:rdf="http://www.w3.org/1999/02/22-rdf-syntax-ns#"
   xmlns:svg="http://www.w3.org/2000/svg"
   xmlns="http://www.w3.org/2000/svg"
   viewBox="0 0 666.66669 666.66669"
   height="666.66669"
   width="666.66669"
   xml:space="preserve"
   id="svg2"
   version="1.1"><metadata
     id="metadata8"><rdf:RDF><cc:Work
         rdf:about=""><dc:format>image/svg+xml</dc:format><dc:type
           rdf:resource="http://purl.org/dc/dcmitype/StillImage" /></cc:Work></rdf:RDF></metadata><defs
     id="defs6"><clipPath
       id="clipPath18"
       clipPathUnits="userSpaceOnUse"><path
         id="path16"
         d="M 0,500 H 500 V 0 H 0 Z" /></clipPath></defs><g
     transform="matrix(1.3333333,0,0,-1.3333333,0,666.66667)"
     id="g10"><g
       id="g12"><g
         clip-path="url(#clipPath18)"
         id="g14"><g
           transform="translate(161.874,429.6226)"
           id="g20"><path
             id="path22"
             style="fill:#1e120d;fill-opacity:1;fill-rule:nonzero;stroke:none"
             d="m 0,0 c -28.537,0 -51.753,-23.216 -51.753,-51.753 0,-13.333 4.996,-25.784 13.794,-35.219 l -0.163,10.709 c -0.028,1.882 0.699,3.696 2.02,5.036 1.32,1.341 3.123,2.096 5.005,2.096 h 236.218 c 1.882,0 3.685,-0.755 5.005,-2.096 1.321,-1.34 2.049,-3.154 2.02,-5.036 l -0.158,-10.411 c 8.63,9.403 13.527,21.74 13.527,34.921 0,28.537 -23.217,51.753 -51.754,51.753 -9.539,0 -18.86,-2.616 -26.953,-7.565 -1.59,-0.972 -3.502,-1.272 -5.313,-0.836 -1.812,0.437 -3.376,1.576 -4.348,3.167 -5.674,9.288 -13.662,17.058 -23.098,22.469 -9.72,5.574 -20.819,8.52 -32.096,8.52 -21.041,0 -40.831,-10.3 -52.939,-27.553 C 27.101,-4.523 23.538,-5.532 20.479,-4.212 14.001,-1.417 7.111,0 0,0 m -30.708,-108.905 c -1.275,0 -2.549,0.347 -3.675,1.038 -9.416,5.781 -17.29,13.902 -22.773,23.486 -5.657,9.891 -8.648,21.173 -8.648,32.628 0,36.284 29.52,65.804 65.804,65.804 7.159,0 14.146,-1.133 20.84,-3.372 14.888,18.334 37.343,29.127 61.113,29.127 13.726,0 27.241,-3.59 39.086,-10.382 9.544,-5.473 17.87,-12.93 24.373,-21.782 8.812,4.208 18.49,6.409 28.349,6.409 36.285,0 65.804,-29.52 65.804,-65.804 0,-22.913 -11.635,-43.82 -31.124,-55.928 -2.182,-1.356 -4.931,-1.412 -7.168,-0.147 -2.236,1.266 -3.602,3.652 -3.563,6.221 l 0.278,18.425 H -23.964 l 0.276,-18.224 c 0.01,-0.157 0.015,-0.314 0.015,-0.473 0,-3.88 -3.145,-7.026 -7.025,-7.026 -0.005,0 -0.007,0 -0.01,0" /></g><g
           transform="translate(144.687,53.3066)"
           id="g24"><path
             id="path26"
             style="fill:#1e120d;fill-opacity:1;fill-rule:nonzero;stroke:none"
             d="m 0,0 h 208.398 l 4.4,290.792 H -4.4 Z M 217.625,-18.735 H -9.227 c -5.118,0 -9.288,4.108 -9.366,9.225 l -4.683,309.528 c -0.038,2.508 0.932,4.927 2.693,6.715 1.76,1.787 4.164,2.794 6.673,2.794 h 236.218 c 2.509,0 4.913,-1.007 6.674,-2.794 1.761,-1.788 2.73,-4.207 2.692,-6.715 L 226.991,-9.51 c -0.077,-5.117 -4.248,-9.225 -9.366,-9.225" /></g><g
           transform="translate(314.126,114.2305)"
           id="g28"><path
             id="path30"
             style="fill:#1e120d;fill-opacity:1;fill-rule:nonzero;stroke:none"
             d="m 0,0 c 0,-3.88 -3.146,-7.025 -7.025,-7.025 -3.88,0 -7.026,3.145 -7.026,7.025 v 169.352 c 0,3.88 3.146,7.025 7.026,7.025 3.879,0 7.025,-3.145 7.025,-7.025 z m -58.215,0 c 0,-3.88 -3.145,-7.025 -7.025,-7.025 -3.88,0 -7.026,3.145 -7.026,7.025 v 169.352 c 0,3.88 3.146,7.025 7.026,7.025 3.88,0 7.025,-3.145 7.025,-7.025 z m -58.214,0 c 0,-3.88 -3.146,-7.025 -7.026,-7.025 -3.88,0 -7.025,3.145 -7.025,7.025 v 169.352 c 0,3.88 3.145,7.025 7.025,7.025 3.88,0 7.026,-3.145 7.026,-7.025 z m -42.658,215.338 3.96,-261.732 H 24.646 l 3.96,261.732 z" /></g><g
           transform="translate(366.333,134.3535)"
           id="g32"><path
             id="path34"
             style="fill:#1e120d;fill-opacity:1;fill-rule:nonzero;stroke:none"
             d="m 0,0 c -5.173,0 -9.367,4.194 -9.367,9.367 0,5.174 4.194,9.367 9.367,9.367 40.872,0 74.124,33.252 74.124,74.124 0,40.872 -33.252,74.124 -74.124,74.124 -5.173,0 -9.367,4.193 -9.367,9.367 0,5.173 4.194,9.367 9.367,9.367 51.202,0 92.858,-41.656 92.858,-92.858 C 92.858,41.656 51.202,0 0,0" /></g></g></g></g></svg>
