<?xml version="1.0" encoding="UTF-8" standalone="no"?>
<svg
   xmlns:dc="http://purl.org/dc/elements/1.1/"
   xmlns:cc="http://creativecommons.org/ns#"
   xmlns:rdf="http://www.w3.org/1999/02/22-rdf-syntax-ns#"
   xmlns:svg="http://www.w3.org/2000/svg"
   xmlns="http://www.w3.org/2000/svg"
   viewBox="0 0 666.66669 666.66669"
   height="666.66669"
   width="666.66669"
   xml:space="preserve"
   id="svg2"
   version="1.1"><metadata
     id="metadata8"><rdf:RDF><cc:Work
         rdf:about=""><dc:format>image/svg+xml</dc:format><dc:type
           rdf:resource="http://purl.org/dc/dcmitype/StillImage" /></cc:Work></rdf:RDF></metadata><defs
     id="defs6"><clipPath
       id="clipPath18"
       clipPathUnits="userSpaceOnUse"><path
         id="path16"
         d="M 0,500 H 500 V 0 H 0 Z" /></clipPath></defs><g
     transform="matrix(1.3333333,0,0,-1.3333333,0,666.66667)"
     id="g10"><g
       id="g12"><g
         clip-path="url(#clipPath18)"
         id="g14"><g
           transform="translate(187.5742,47.1396)"
           id="g20"><path
             id="path22"
             style="fill:#1e120d;fill-opacity:1;fill-rule:evenodd;stroke:none"
             d="m 0,0 h 129.906 v 19.164 c 12.511,21.081 25.477,42.599 36.722,65.116 11.231,9.796 25.844,19.532 40.524,29.314 25.388,16.938 51.022,34.027 62.076,53.157 l 0.021,0.041 0.374,0.639 v 0.027 c 4.102,7.279 7.088,15.184 7.033,22.64 -0.06,8.299 -3.585,15.796 -12.741,21.095 l -0.041,0.014 -0.238,0.15 h -0.021 c -17.598,9.939 -45.401,-8.123 -65.619,-22.831 0.993,13.545 0.755,27.558 -1,42.137 H -73.307 C -82.511,160.159 -49.239,89.661 0,19.164 Z m 196.363,173.526 0.987,0.735 c 18.068,13.387 47.265,35.048 60.803,27.435 v -0.012 l 0.184,-0.123 c 5.184,-2.987 7.177,-7.069 7.211,-11.504 0.041,-5.299 -2.32,-11.361 -5.592,-17.143 l -0.014,0.014 -0.339,-0.606 c -9.777,-16.905 -34.314,-33.272 -58.627,-49.483 -8.225,-5.49 -16.415,-10.946 -24.082,-16.463 9.054,21.218 16.088,43.449 19.469,67.15" /></g><g
           transform="translate(211.0708,410.2085)"
           id="g24"><path
             id="path26"
             style="fill:#1e120d;fill-opacity:1;fill-rule:evenodd;stroke:none"
             d="M 0,0 C -43.599,-57.326 40.674,-48.604 12.102,-122.143 73.233,-62.849 -11.17,-66.347 0,0" /></g><g
           transform="translate(245.6021,463.4282)"
           id="g28"><path
             id="path30"
             style="fill:#1e120d;fill-opacity:1;fill-rule:evenodd;stroke:none"
             d="m 0,0 c -5.517,-28.913 -3.925,-39.263 7.864,-54.734 8.394,-11.031 20.15,-20.984 28.674,-31.809 27.504,-34.971 5.258,-59.608 -23.83,-87.124 3.775,8.768 9.68,21.699 12.864,34.605 C 40.246,-79.387 -61.722,-76.625 0,0" /></g></g></g></g></svg>
