<?xml version="1.0" standalone="no"?>
<!DOCTYPE svg PUBLIC "-//W3C//DTD SVG 20010904//EN"
 "http://www.w3.org/TR/2001/REC-SVG-20010904/DTD/svg10.dtd">
<svg version="1.0" xmlns="http://www.w3.org/2000/svg"
 width="500.000000pt" height="500.000000pt" viewBox="0 0 500.000000 500.000000"
 preserveAspectRatio="xMidYMid meet">
<metadata>
Created by potrace 1.15, written by Peter Selinger 2001-2017
</metadata>
<g transform="translate(0.000000,500.000000) scale(0.100000,-0.100000)"
fill="#000000" stroke="none">
<path d="M2779 4945 c-638 -87 -1144 -471 -1245 -945 -7 -36 -14 -91 -14 -122
l0 -58 1545 0 1545 0 0 58 c0 31 -7 86 -14 122 -101 477 -609 860 -1254 945
-138 18 -429 18 -563 0z"/>
<path d="M2900 2940 l0 -560 -165 0 -165 0 0 -830 0 -830 140 0 c107 0 140 3
140 13 0 23 71 160 114 222 142 198 373 315 620 315 231 -1 408 -78 570 -251
71 -75 150 -205 168 -276 6 -22 9 -23 147 -23 l141 0 0 830 0 830 -690 0 -690
0 0 560 0 560 -165 0 -165 0 0 -560z"/>
<path d="M390 2215 l0 -165 565 0 565 0 0 -1000 0 -1000 165 0 165 0 0 335 0
335 205 0 205 0 0 830 0 830 -935 0 -935 0 0 -165z"/>
<path d="M3460 944 c-192 -52 -330 -235 -330 -437 0 -184 93 -333 258 -414 66
-33 84 -38 169 -41 117 -5 199 14 281 68 272 175 278 581 12 759 -114 76 -259
100 -390 65z"/>
</g>
</svg>