<?xml version="1.0" standalone="no"?>
<!DOCTYPE svg PUBLIC "-//W3C//DTD SVG 20010904//EN"
 "http://www.w3.org/TR/2001/REC-SVG-20010904/DTD/svg10.dtd">
<svg version="1.0" xmlns="http://www.w3.org/2000/svg"
 width="500.000000pt" height="500.000000pt" viewBox="0 0 500.000000 500.000000"
 preserveAspectRatio="xMidYMid meet">
<metadata>
Created by potrace 1.15, written by Peter Selinger 2001-2017
</metadata>
<g transform="translate(0.000000,500.000000) scale(0.100000,-0.100000)"
fill="#000000" stroke="none">
<path d="M2484 4815 c-3 -11 -133 -409 -288 -885 l-281 -865 -933 -3 c-570 -1
-932 -6 -930 -11 2 -6 338 -253 748 -551 410 -297 746 -544 748 -548 1 -5
-126 -404 -283 -887 -157 -483 -284 -880 -282 -882 4 -3 298 205 828 590 l286
207 6 92 c16 229 19 424 8 465 -9 32 -27 55 -76 98 -41 36 -68 69 -73 89 -5
17 -5 171 -1 341 6 276 10 323 33 430 49 232 143 478 211 554 45 49 62 52 69
9 3 -18 7 -451 8 -963 2 -622 7 -936 14 -948 9 -16 14 -15 55 16 24 18 67 49
95 70 l51 36 97 -70 c53 -39 99 -69 102 -67 2 3 11 133 19 289 8 156 16 308
18 337 3 39 0 52 -10 52 -8 0 -39 12 -69 27 -71 34 -140 108 -150 159 -15 83
6 441 47 762 l11 92 29 0 29 0 0 -380 0 -380 40 0 40 0 0 380 0 380 35 0 35 0
0 -380 0 -380 40 0 40 0 0 380 0 380 35 0 35 0 0 -380 0 -380 40 0 40 0 0 380
c0 368 1 380 19 380 24 0 25 -6 50 -240 32 -292 44 -516 32 -590 -10 -62 -13
-68 -70 -122 -39 -37 -78 -63 -111 -75 l-50 -18 0 -45 c0 -64 39 -792 42 -795
289 -212 1074 -778 1084 -782 8 -3 14 -3 14 0 0 3 -128 401 -285 883 -157 483
-284 881 -283 886 2 4 338 251 748 548 410 298 746 545 748 551 2 5 -360 10
-930 11 l-933 3 -285 877 c-157 482 -289 880 -293 884 -4 5 -10 -1 -13 -11z"/>
</g>
</svg>
