<?xml version="1.0" standalone="no"?>
<!DOCTYPE svg PUBLIC "-//W3C//DTD SVG 20010904//EN"
 "http://www.w3.org/TR/2001/REC-SVG-20010904/DTD/svg10.dtd">
<svg version="1.0" xmlns="http://www.w3.org/2000/svg"
 width="500.000000pt" height="500.000000pt" viewBox="0 0 500.000000 500.000000"
 preserveAspectRatio="xMidYMid meet">
<metadata>
Created by potrace 1.15, written by Peter Selinger 2001-2017
</metadata>
<g transform="translate(0.000000,500.000000) scale(0.100000,-0.100000)"
fill="#000000" stroke="none">
<path d="M2641 4919 c-302 -59 -569 -319 -606 -590 -17 -126 45 -279 159 -394
149 -150 316 -232 549 -270 253 -41 443 1 569 127 l56 56 8 -76 c17 -182 -14
-572 -66 -833 -49 -245 -117 -426 -195 -516 l-36 -42 -52 42 c-71 58 -196 121
-302 153 -121 36 -318 44 -450 19 -104 -19 -217 -61 -296 -109 l-56 -33 -29
46 c-43 69 -179 201 -268 261 -220 147 -447 208 -731 197 -158 -6 -282 -33
-413 -89 l-77 -33 -3 -1378 -2 -1377 67 0 c147 0 341 71 465 170 164 131 275
350 303 597 l7 61 36 -41 c136 -151 467 -310 787 -379 99 -21 135 -23 360 -23
855 2 1423 183 1903 607 123 109 195 221 234 367 18 64 21 106 21 266 1 205
-8 296 -53 561 -70 406 -196 876 -385 1432 -158 468 -301 806 -375 886 -121
131 -458 286 -719 330 -102 17 -334 20 -410 5z"/>
</g>
</svg>
