<?xml version="1.0" standalone="no"?>
<!DOCTYPE svg PUBLIC "-//W3C//DTD SVG 20010904//EN"
 "http://www.w3.org/TR/2001/REC-SVG-20010904/DTD/svg10.dtd">
<svg version="1.0" xmlns="http://www.w3.org/2000/svg"
 width="500.000000pt" height="500.000000pt" viewBox="0 0 500.000000 500.000000"
 preserveAspectRatio="xMidYMid meet">
<metadata>
Created by potrace 1.15, written by Peter Selinger 2001-2017
</metadata>
<g transform="translate(0.000000,500.000000) scale(0.100000,-0.100000)"
fill="#000000" stroke="none">
<path d="M670 4280 l0 -300 -300 0 -300 0 0 -1480 0 -1480 255 0 255 0 0 -28
c0 -45 39 -173 73 -237 19 -35 66 -94 112 -141 87 -88 176 -140 290 -169 78
-20 240 -19 319 1 205 52 378 215 441 415 14 44 25 91 25 104 0 59 -47 55 655
55 702 0 655 4 655 -55 0 -13 11 -60 25 -104 63 -200 236 -363 441 -415 79
-20 241 -21 319 -1 114 29 203 81 290 169 46 47 93 106 112 141 34 64 73 192
73 237 l0 28 255 0 255 0 -1 808 0 807 -530 673 -530 672 -264 0 -265 0 0 300
0 300 -1330 0 -1330 0 0 -300z m2350 -155 l0 -145 -1020 0 -1020 0 0 145 0
145 1020 0 1020 0 0 -145z m-2070 -600 l0 -145 -285 0 -285 0 0 145 0 145 285
0 285 0 0 -145z m880 0 l0 -145 -285 0 -285 0 0 145 0 145 285 0 285 0 0 -145z
m890 0 l0 -145 -290 0 -290 0 0 145 0 145 290 0 290 0 0 -145z m1442 -438
l458 -582 0 -587 0 -588 -132 0 -133 1 -35 60 c-65 115 -229 243 -355 278
-192 54 -402 19 -559 -93 -73 -52 -121 -105 -173 -188 l-36 -58 -702 0 -702 0
-36 58 c-52 83 -100 136 -173 188 -157 112 -367 147 -559 93 -126 -35 -290
-163 -355 -278 l-35 -60 -127 -1 -128 0 0 330 0 330 1325 0 1325 0 0 840 0
840 338 0 337 0 457 -583z m-1442 -402 l0 -385 -1170 0 -1170 0 0 385 0 385
1170 0 1170 0 0 -385z m-1395 -1323 c71 -22 165 -117 190 -192 39 -115 16
-233 -63 -321 -127 -141 -335 -148 -468 -15 -152 153 -114 406 75 510 85 46
162 51 266 18z m2592 -13 c201 -96 246 -357 89 -515 -133 -133 -341 -126 -468
15 -111 124 -110 301 3 425 103 113 239 140 376 75z"/>
</g>
</svg>