<?xml version="1.0" standalone="no"?>
<!DOCTYPE svg PUBLIC "-//W3C//DTD SVG 20010904//EN"
 "http://www.w3.org/TR/2001/REC-SVG-20010904/DTD/svg10.dtd">
<svg version="1.0" xmlns="http://www.w3.org/2000/svg"
 width="500.000000pt" height="500.000000pt" viewBox="0 0 500.000000 500.000000"
 preserveAspectRatio="xMidYMid meet">
<metadata>
Created by potrace 1.15, written by Peter Selinger 2001-2017
</metadata>
<g transform="translate(0.000000,500.000000) scale(0.100000,-0.100000)"
fill="#000000" stroke="none">
<path d="M1627 4959 c-43 -25 -47 -60 -47 -414 l0 -335 -358 0 c-399 0 -392 1
-412 -68 -7 -25 -10 -689 -10 -2030 0 -2139 -2 -2044 48 -2071 29 -15 3275
-15 3304 0 50 27 48 -68 48 2071 0 1341 -3 2005 -10 2030 -20 70 -9 68 -452
68 l-398 0 0 355 0 356 -25 24 -24 25 -823 0 c-567 -1 -829 -4 -841 -11z
m1513 -469 l0 -280 -680 0 -680 0 0 280 0 280 680 0 680 0 0 -280z m-400 -976
c187 -31 377 -108 550 -222 109 -72 281 -239 360 -350 118 -165 210 -384 246
-582 23 -126 23 -353 1 -477 -94 -517 -453 -936 -947 -1106 -150 -51 -270 -70
-450 -70 -183 0 -299 18 -457 73 -488 169 -847 590 -939 1100 -23 126 -23 352
0 480 92 512 467 944 960 1105 91 30 231 58 341 69 66 7 234 -4 335 -20z"/>
<path d="M2379 3350 c-676 -68 -1176 -672 -1110 -1342 55 -557 451 -996 998
-1105 119 -23 347 -23 466 0 708 141 1147 843 961 1538 -119 447 -491 798
-939 888 -119 23 -271 32 -376 21z m-18 -280 c29 -10 63 -29 76 -42 21 -20 26
-21 46 -8 82 52 112 63 182 68 63 4 80 1 134 -23 108 -49 174 -147 175 -260 1
-33 -3 -74 -7 -92 l-8 -32 161 -3 162 -3 24 -28 c23 -27 24 -34 24 -187 l0
-158 -31 -26 c-18 -15 -43 -26 -60 -26 l-29 0 0 -485 c0 -527 0 -528 -55 -553
-19 -9 -197 -12 -691 -12 -713 0 -707 0 -734 49 -6 13 -10 193 -10 510 l0 491
-25 0 c-40 0 -73 21 -90 57 -14 29 -16 61 -13 174 3 136 4 139 31 166 l27 28
166 3 c151 3 165 5 158 20 -17 40 -16 141 1 193 23 69 110 159 175 182 63 22
149 21 211 -3z"/>
<path d="M2174 2876 c-29 -29 -34 -41 -34 -81 0 -40 5 -52 34 -81 33 -33 36
-34 115 -34 l81 0 0 75 c0 41 -5 86 -12 100 -15 34 -57 55 -109 55 -33 0 -47
-6 -75 -34z"/>
<path d="M2608 2887 c-36 -29 -48 -65 -48 -143 l0 -64 85 0 c79 0 87 2 117 29
30 27 33 35 33 86 0 51 -3 59 -33 86 -42 38 -113 41 -154 6z"/>
<path d="M1770 2465 l0 -35 300 0 300 0 0 35 0 35 -300 0 -300 0 0 -35z"/>
<path d="M2550 2465 l0 -35 300 0 300 0 0 35 0 35 -300 0 -300 0 0 -35z"/>
<path d="M1900 2080 l0 -170 235 0 235 0 0 170 0 170 -235 0 -235 0 0 -170z"/>
<path d="M2550 2080 l0 -170 240 0 240 0 0 170 0 170 -240 0 -240 0 0 -170z"/>
<path d="M1900 1555 l0 -175 235 0 235 0 0 175 0 175 -235 0 -235 0 0 -175z"/>
<path d="M2550 1555 l0 -175 240 0 240 0 0 175 0 175 -240 0 -240 0 0 -175z"/>
</g>
</svg>
