<?xml version="1.0" standalone="no"?>
<!DOCTYPE svg PUBLIC "-//W3C//DTD SVG 20010904//EN"
 "http://www.w3.org/TR/2001/REC-SVG-20010904/DTD/svg10.dtd">
<svg version="1.0" xmlns="http://www.w3.org/2000/svg"
 width="500.000000pt" height="500.000000pt" viewBox="0 0 500.000000 500.000000"
 preserveAspectRatio="xMidYMid meet">
<metadata>
Created by potrace 1.15, written by Peter Selinger 2001-2017
</metadata>
<g transform="translate(0.000000,500.000000) scale(0.100000,-0.100000)"
fill="#000000" stroke="none">
<path d="M461 4773 c-17 -14 -52 -126 -161 -511 -77 -271 -140 -502 -140 -513
0 -11 13 -34 29 -50 l29 -29 136 0 136 0 0 -1650 0 -1650 -144 0 c-130 0 -146
-2 -170 -21 -35 -28 -37 -95 -3 -127 l23 -22 2310 0 2311 0 21 23 c33 35 30
99 -4 126 -24 19 -40 21 -170 21 l-144 0 0 628 0 629 23 10 c48 22 146 124
174 181 38 77 40 193 5 264 -30 61 -100 139 -157 175 l-45 28 0 693 0 692 136
0 136 0 29 29 c16 16 29 39 29 50 0 11 -63 242 -140 513 -109 385 -144 497
-161 511 -20 16 -132 17 -2044 17 -1912 0 -2024 -1 -2044 -17z m443 -515 c-40
-200 -76 -373 -79 -385 l-5 -23 -226 0 c-210 0 -225 1 -220 18 3 9 50 177 106
372 55 195 103 361 105 368 3 9 52 12 199 12 l194 0 -74 -362z m646 348 c0 -8
-20 -179 -45 -380 -25 -201 -45 -368 -45 -371 0 -3 -103 -5 -228 -5 l-228 0
68 333 c37 182 73 356 79 385 l10 52 195 0 c163 0 194 -2 194 -14z m576 -58
c-3 -40 -11 -214 -17 -385 l-12 -313 -230 0 -229 0 6 38 c10 61 86 695 86 715
0 16 16 17 201 17 l201 0 -6 -72z m575 70 c2 -10 28 -647 29 -700 l0 -68 -225
0 -225 0 0 48 c0 78 20 592 26 660 l6 62 194 0 c107 0 194 -1 195 -2z m579
-15 c0 -20 76 -654 86 -715 l6 -38 -229 0 -230 0 -12 313 c-6 171 -14 345 -17
385 l-6 72 201 0 c185 0 201 -1 201 -17z m579 -35 c6 -29 42 -203 79 -385 l68
-333 -228 0 c-125 0 -228 2 -228 5 0 3 -20 170 -45 371 -25 201 -45 372 -45
380 0 12 31 14 194 14 l195 0 10 -52z m667 -313 c57 -198 105 -370 109 -382
l5 -23 -225 0 -225 0 -5 23 c-3 12 -39 185 -79 385 l-74 362 196 -2 195 -3
103 -360z m-176 -1241 c0 -619 -1 -655 -17 -651 -10 3 -40 10 -68 17 l-50 11
3 62 c5 95 -24 163 -107 247 -52 53 -86 77 -161 113 -151 74 -241 92 -450 91
-157 0 -185 -3 -274 -27 -269 -72 -437 -230 -437 -410 0 -35 1 -69 3 -76 2 -8
-24 -21 -72 -35 -41 -12 -108 -39 -149 -61 -70 -37 -177 -128 -198 -169 -10
-18 -12 -18 -54 -2 l-44 17 0 92 c0 83 -3 97 -30 146 -34 62 -89 112 -154 142
l-46 20 3 75 c5 97 -16 158 -75 224 -60 67 -129 102 -215 108 -85 6 -143 -10
-211 -58 l-53 -37 -38 33 c-84 73 -231 85 -335 28 -113 -61 -176 -174 -169
-300 l5 -71 -59 -28 c-69 -33 -121 -87 -155 -161 -21 -46 -24 -66 -21 -134 3
-74 2 -80 -20 -90 -13 -5 -27 -10 -32 -10 -6 0 -10 291 -10 775 l0 775 1845 0
1845 0 0 -656z m-3004 -263 c17 -10 39 -36 48 -56 49 -103 -30 -215 -142 -202
-127 14 -167 191 -59 257 41 26 112 26 153 1z m461 -1 c89 -54 83 -199 -10
-243 -93 -44 -190 9 -204 111 -6 46 13 88 57 126 40 33 109 36 157 6z m1923
-45 c139 -37 261 -110 296 -176 15 -30 19 -96 6 -115 -4 -6 -47 -14 -97 -17
-172 -12 -329 -65 -452 -153 -64 -45 -65 -46 -121 -39 -182 23 -365 126 -391
221 -33 120 101 232 339 285 106 24 319 20 420 -6z m-2636 -349 c97 -40 112
-164 29 -237 -34 -29 -40 -31 -95 -27 -49 4 -64 9 -89 35 -68 68 -51 185 33
226 41 20 78 21 122 3z m474 -6 c68 -42 92 -132 52 -197 -53 -88 -198 -83
-246 8 -21 41 -15 121 12 151 52 58 123 73 182 38z m459 3 c46 -22 73 -67 73
-123 0 -84 -57 -140 -141 -140 -146 0 -189 196 -58 262 43 22 81 23 126 1z
m2251 -162 c364 -106 393 -334 57 -454 -205 -73 -501 -60 -678 30 -112 56
-177 137 -163 205 21 104 165 197 371 237 86 17 329 6 413 -18z m-1328 -16
c70 -51 184 -102 284 -127 l88 -22 -6 -37 c-9 -54 10 -137 43 -191 l29 -47
-61 -20 c-101 -32 -162 -41 -282 -41 -232 0 -436 71 -517 181 -46 62 -27 154
44 214 62 52 235 122 307 124 13 1 45 -15 71 -34z m-2081 -223 c73 -37 98
-111 62 -185 -29 -59 -71 -82 -140 -75 -41 4 -59 12 -83 35 -67 68 -50 185 34
226 43 21 85 21 127 -1z m469 -2 c68 -42 92 -132 52 -197 -53 -88 -198 -83
-246 8 -21 41 -15 121 12 151 52 58 123 73 182 38z m459 3 c54 -25 75 -66 70
-136 -3 -49 -8 -63 -34 -89 -40 -39 -118 -51 -168 -24 -99 53 -95 197 6 248
43 22 81 23 126 1z m457 3 c97 -40 112 -164 29 -237 -34 -29 -40 -31 -95 -27
-49 4 -64 9 -89 35 -68 68 -51 185 33 226 41 20 78 21 122 3z m-1514 -956 l0
-511 25 -24 24 -25 1716 0 1716 0 24 25 25 24 0 511 0 510 40 0 40 0 0 -570 0
-570 -1845 0 -1845 0 0 570 0 570 40 0 40 0 0 -510z m3350 65 l0 -445 -1585 0
-1585 0 0 445 0 445 1585 0 1585 0 0 -445z"/>
</g>
</svg>
