<?xml version="1.0" standalone="no"?>
<!DOCTYPE svg PUBLIC "-//W3C//DTD SVG 20010904//EN"
 "http://www.w3.org/TR/2001/REC-SVG-20010904/DTD/svg10.dtd">
<svg version="1.0" xmlns="http://www.w3.org/2000/svg"
 width="500.000000pt" height="500.000000pt" viewBox="0 0 500.000000 500.000000"
 preserveAspectRatio="xMidYMid meet">
<metadata>
Created by potrace 1.15, written by Peter Selinger 2001-2017
</metadata>
<g transform="translate(0.000000,500.000000) scale(0.100000,-0.100000)"
fill="#000000" stroke="none">
<path d="M1390 4591 c-216 -71 -291 -326 -144 -490 25 -28 49 -51 53 -51 5 0
24 33 44 73 63 127 177 241 305 304 39 20 72 39 72 43 0 16 -76 81 -118 101
-48 24 -167 35 -212 20z"/>
<path d="M1823 4376 c-189 -44 -361 -205 -418 -393 -24 -79 -29 -198 -11 -281
24 -114 69 -196 156 -283 116 -118 240 -169 408 -169 234 0 443 145 528 366
36 92 44 248 19 344 -48 187 -196 345 -374 401 -86 27 -226 33 -308 15z"/>
<path d="M1275 3220 c-68 -10 -129 -43 -153 -82 -37 -60 -267 -618 -533 -1290
l-19 -48 499 0 498 0 46 95 c47 97 60 113 229 272 89 84 122 143 123 220 l0
52 35 -32 c19 -18 76 -71 125 -118 50 -47 105 -94 123 -103 19 -10 198 -80
399 -157 387 -147 416 -155 491 -123 42 17 88 58 107 94 49 96 11 227 -80 277
-22 11 -184 76 -360 143 -176 67 -334 132 -351 145 -17 13 -156 142 -308 287
-153 144 -290 271 -304 280 -35 23 -253 75 -367 88 -100 11 -126 11 -200 0z"/>
<path d="M3750 2265 c-135 -31 -264 -116 -344 -228 -57 -80 -81 -137 -102
-239 -61 -302 131 -606 431 -683 76 -19 224 -19 300 0 207 54 377 228 426 435
18 77 15 223 -6 295 -54 190 -193 338 -376 402 -92 32 -233 40 -329 18z"/>
<path d="M304 1681 c-52 -13 -103 -50 -129 -96 l-26 -43 3 -335 c3 -376 -1
-354 82 -421 l38 -31 1381 -3 1382 -2 150 -149 c82 -82 166 -157 185 -168 33
-17 74 -18 643 -21 404 -2 621 1 647 8 56 15 121 68 152 125 56 101 29 252
-58 323 -75 62 -75 62 -642 62 l-515 0 -355 360 c-195 199 -369 369 -386 378
-29 16 -124 17 -1276 19 -685 0 -1259 -2 -1276 -6z"/>
<path d="M150 556 l0 -146 1531 0 1530 0 -102 110 -103 110 -1360 2 -1361 3
-60 30 c-33 16 -63 31 -67 33 -5 2 -8 -62 -8 -142z"/>
</g>
</svg>
