<?xml version="1.0" encoding="UTF-8" standalone="no"?>
<svg
   xmlns:dc="http://purl.org/dc/elements/1.1/"
   xmlns:cc="http://creativecommons.org/ns#"
   xmlns:rdf="http://www.w3.org/1999/02/22-rdf-syntax-ns#"
   xmlns:svg="http://www.w3.org/2000/svg"
   xmlns="http://www.w3.org/2000/svg"
   viewBox="0 0 666.66669 666.66669"
   height="666.66669"
   width="666.66669"
   xml:space="preserve"
   id="svg2"
   version="1.1"><metadata
     id="metadata8"><rdf:RDF><cc:Work
         rdf:about=""><dc:format>image/svg+xml</dc:format><dc:type
           rdf:resource="http://purl.org/dc/dcmitype/StillImage" /></cc:Work></rdf:RDF></metadata><defs
     id="defs6"><clipPath
       id="clipPath18"
       clipPathUnits="userSpaceOnUse"><path
         id="path16"
         d="M 0,500 H 500 V 0 H 0 Z" /></clipPath></defs><g
     transform="matrix(1.3333333,0,0,-1.3333333,0,666.66667)"
     id="g10"><g
       id="g12"><g
         clip-path="url(#clipPath18)"
         id="g14"><g
           transform="translate(173.8022,435.5386)"
           id="g20"><path
             id="path22"
             style="fill:#1e120d;fill-opacity:1;fill-rule:nonzero;stroke:none"
             d="m 0,0 c -8.202,-20.842 -12.507,-44.453 -12.507,-68.874 0,-37.098 9.814,-71.786 27.634,-97.675 16.667,-24.215 38.284,-37.55 60.869,-37.55 22.585,0 44.202,13.335 60.869,37.55 17.82,25.888 27.634,60.577 27.634,97.675 0,24.421 -4.305,48.032 -12.507,68.874 z m 75.996,-233.459 c -32.538,0 -62.744,17.85 -85.054,50.263 -21.158,30.737 -32.81,71.338 -32.81,114.322 0,32.041 6.523,63.066 18.863,89.722 2.403,5.19 7.602,8.512 13.322,8.512 h 171.357 c 5.72,0 10.919,-3.322 13.323,-8.512 12.339,-26.656 18.862,-57.681 18.862,-89.722 0,-42.984 -11.651,-83.585 -32.809,-114.322 -22.31,-32.413 -52.516,-50.263 -85.054,-50.263" /></g><path
           id="path24"
           style="fill:#1e120d;fill-opacity:1;fill-rule:nonzero;stroke:none"
           d="m 264.479,56.691 h -29.361 v 160.057 h 29.361 z" /><g
           transform="translate(316.1875,33.9248)"
           id="g26"><path
             id="path28"
             style="fill:#1e120d;fill-opacity:1;fill-rule:nonzero;stroke:none"
             d="m 0,0 h -132.779 c -8.108,0 -14.68,6.572 -14.68,14.68 0,8.108 6.572,14.68 14.68,14.68 H 0 c 8.108,0 14.681,-6.572 14.681,-14.68 C 14.681,6.572 8.108,0 0,0" /></g><g
           transform="translate(178.9795,400.3335)"
           id="g30"><path
             id="path32"
             style="fill:#1e120d;fill-opacity:1;fill-rule:nonzero;stroke:none"
             d="m 0,0 c -1.31,-9.2 -1.982,-18.669 -1.982,-28.289 0,-35.836 9.61,-70.351 26.366,-94.694 18.359,-26.672 36.972,-30.654 46.435,-30.654 9.461,0 28.076,3.982 46.434,30.654 16.756,24.343 26.366,58.858 26.366,94.694 0,9.62 -0.672,19.089 -1.981,28.289 z" /></g></g></g></g></svg>
